<svg xmlns="http://www.w3.org/2000/svg" width="30" height="30" viewBox="0 0 30 30" fill="none">
    <mask id="path-1-outside-1_14_295" maskUnits="userSpaceOnUse" x="6.5" y="5" width="17" height="18" fill="black">
        <rect fill="white" x="6.5" y="5" width="17" height="18"/>
        <path d="M15.0003 11.3072C14.26 11.3072 13.55 11.6175 13.0265 12.1699C12.503 12.7223 12.209 13.4715 12.209 14.2527C12.209 15.0338 12.503 15.783 13.0265 16.3354C13.55 16.8878 14.26 17.1981 15.0003 17.1981C15.7406 17.1981 16.4505 16.8878 16.974 16.3354C17.4975 15.783 17.7916 15.0338 17.7916 14.2527C17.7916 13.4715 17.4975 12.7223 16.974 12.1699C16.4505 11.6175 15.7406 11.3072 15.0003 11.3072ZM13.3255 14.2527C13.3255 13.7839 13.5019 13.3344 13.816 13.003C14.1301 12.6716 14.5561 12.4854 15.0003 12.4854C15.4444 12.4854 15.8704 12.6716 16.1845 13.003C16.4986 13.3344 16.675 13.7839 16.675 14.2527C16.675 14.7214 16.4986 15.1709 16.1845 15.5023C15.8704 15.8337 15.4444 16.0199 15.0003 16.0199C14.5561 16.0199 14.1301 15.8337 13.816 15.5023C13.5019 15.1709 13.3255 14.7214 13.3255 14.2527ZM13.2362 22.2809C13.814 22.4264 14.4063 22.5 15.0003 22.5C15.5937 22.499 16.185 22.4249 16.7621 22.2791C16.928 22.2379 17.0776 22.1435 17.1906 22.0089C17.3035 21.8743 17.3742 21.7061 17.393 21.5274L17.5236 20.2726C17.5362 20.1357 17.5795 20.004 17.6499 19.8883C17.7203 19.7725 17.8158 19.6762 17.9285 19.6071C18.0412 19.538 18.1678 19.4982 18.298 19.491C18.4281 19.4838 18.558 19.5094 18.677 19.5657L19.7684 20.07C19.9246 20.1425 20.0984 20.162 20.2655 20.1255C20.4327 20.0891 20.585 19.9987 20.7012 19.8667C21.5076 18.9499 22.1096 17.8543 22.4631 16.6603C22.5138 16.4876 22.5122 16.3025 22.4587 16.1308C22.4052 15.959 22.3023 15.8091 22.1644 15.7018L21.1992 14.9507C21.0937 14.8697 21.008 14.7634 20.9489 14.6407C20.8899 14.5179 20.8592 14.3822 20.8593 14.2445C20.8595 14.1069 20.8905 13.9712 20.9499 13.8486C21.0092 13.7261 21.0952 13.62 21.2008 13.5393L22.1611 12.7911C22.2998 12.6841 22.4033 12.534 22.457 12.3618C22.5108 12.1896 22.5121 12.0039 22.4608 11.8309C22.108 10.6364 21.5057 9.5407 20.6984 8.62442C20.5817 8.49273 20.4291 8.40246 20.2618 8.36606C20.0944 8.32966 19.9205 8.34892 19.7639 8.42119L18.6775 8.92545C18.5584 8.98022 18.4288 9.00466 18.2991 8.99679C18.1695 8.98892 18.0434 8.94896 17.931 8.88014C17.8187 8.81132 17.7233 8.71557 17.6525 8.60064C17.5817 8.48571 17.5376 8.35481 17.5236 8.21854L17.3918 6.96965C17.3734 6.78883 17.3017 6.61866 17.1869 6.48308C17.072 6.3475 16.9197 6.25334 16.7515 6.21384C16.1783 6.07867 15.5932 6.007 15.0058 6C14.415 6.00738 13.8265 6.07904 13.2496 6.21384C13.0813 6.25266 12.9289 6.34639 12.814 6.48173C12.6991 6.61708 12.6274 6.78717 12.6092 6.96789L12.4769 8.21795C12.4625 8.35443 12.4179 8.48544 12.3469 8.6005C12.2758 8.71555 12.1802 8.81144 12.0677 8.8805C11.9552 8.94956 11.829 8.98986 11.6991 8.99818C11.5692 9.0065 11.4392 8.9826 11.3197 8.9284L10.2333 8.42354C10.0765 8.35329 9.90315 8.33539 9.73647 8.37225C9.56979 8.40911 9.41781 8.49897 9.30099 8.62973C8.49354 9.54689 7.89078 10.6431 7.53688 11.8379C7.48651 12.0106 7.48826 12.1954 7.54187 12.3669C7.59548 12.5384 7.69831 12.6881 7.83611 12.7952L8.79911 13.5446C8.90401 13.626 8.98929 13.7324 9.04807 13.855C9.10685 13.9776 9.13747 14.1132 9.13747 14.2506C9.13747 14.388 9.10685 14.5235 9.04807 14.6462C8.98929 14.7688 8.90401 14.8752 8.79911 14.9566L7.83611 15.7077C7.69779 15.815 7.59466 15.9652 7.54112 16.1374C7.48758 16.3095 7.48629 16.495 7.53744 16.6679C7.89118 17.8636 8.49393 18.9606 9.30154 19.8785C9.37832 19.9656 9.47141 20.035 9.57491 20.0821C9.67841 20.1293 9.79006 20.1532 9.90279 20.1525C10.0161 20.1525 10.1283 20.1277 10.2327 20.08L11.3241 19.574C11.4432 19.5197 11.5726 19.4956 11.7021 19.5037C11.8315 19.5119 11.9573 19.5519 12.0695 19.6206C12.1816 19.6894 12.2769 19.7849 12.3476 19.8996C12.4184 20.0143 12.4627 20.1449 12.4769 20.2809L12.6081 21.5333C12.6272 21.711 12.6977 21.8782 12.8101 22.0121C12.9225 22.146 13.0713 22.2395 13.2362 22.2809ZM16.3071 21.1816C15.4458 21.368 14.5575 21.368 13.6962 21.1816L13.5873 20.1566C13.5341 19.6551 13.3075 19.192 12.9509 18.8559C12.6717 18.5964 12.3287 18.4256 11.9614 18.3631C11.5942 18.3005 11.2176 18.3488 10.8753 18.5024L9.97871 18.9148C9.40035 18.2159 8.95528 17.4058 8.66792 16.5289L9.46288 15.9092C9.70848 15.7182 9.90812 15.469 10.0457 15.1817C10.1833 14.8944 10.255 14.5769 10.255 14.255C10.255 13.9331 10.1833 13.6157 10.0457 13.3283C9.90812 13.041 9.70848 12.7918 9.46288 12.6008L8.66959 11.9829C8.95729 11.1068 9.40234 10.2976 9.98039 9.59938L10.8736 10.0117C11.1198 10.1265 11.386 10.1855 11.6552 10.1849C12.1344 10.1834 12.5964 9.99595 12.9533 9.65837C13.3101 9.32079 13.537 8.85658 13.5907 8.35403L13.699 7.32488C14.131 7.23651 14.5698 7.18939 15.0092 7.18349C15.4458 7.18939 15.8812 7.23651 16.3099 7.32488L16.4138 8.34991C16.4655 8.85278 16.6916 9.31773 17.0485 9.65534C17.3279 9.91635 17.6718 10.0882 18.0402 10.1507C18.4086 10.2133 18.7863 10.1641 19.1291 10.0088L20.0224 9.59643C20.6012 10.2944 21.0467 11.104 21.3343 11.9805L20.5399 12.5967C20.293 12.787 20.0922 13.0361 19.9538 13.3238C19.8153 13.6114 19.7432 13.9295 19.7432 14.2521C19.7432 14.5747 19.8153 14.8927 19.9538 15.1804C20.0922 15.468 20.293 15.7171 20.5399 15.9074L21.3337 16.526C21.0459 17.4008 20.6015 18.2092 20.0246 18.9071L19.1314 18.4947C18.8519 18.3635 18.5469 18.3039 18.2414 18.3208C17.9358 18.3378 17.6385 18.4308 17.3735 18.5922C17.1086 18.7537 16.8836 18.979 16.717 19.2497C16.5504 19.5205 16.4469 19.829 16.4149 20.1501L16.3071 21.1816Z"/>
    </mask>
    <path d="M15.0003 11.3072C14.26 11.3072 13.55 11.6175 13.0265 12.1699C12.503 12.7223 12.209 13.4715 12.209 14.2527C12.209 15.0338 12.503 15.783 13.0265 16.3354C13.55 16.8878 14.26 17.1981 15.0003 17.1981C15.7406 17.1981 16.4505 16.8878 16.974 16.3354C17.4975 15.783 17.7916 15.0338 17.7916 14.2527C17.7916 13.4715 17.4975 12.7223 16.974 12.1699C16.4505 11.6175 15.7406 11.3072 15.0003 11.3072ZM13.3255 14.2527C13.3255 13.7839 13.5019 13.3344 13.816 13.003C14.1301 12.6716 14.5561 12.4854 15.0003 12.4854C15.4444 12.4854 15.8704 12.6716 16.1845 13.003C16.4986 13.3344 16.675 13.7839 16.675 14.2527C16.675 14.7214 16.4986 15.1709 16.1845 15.5023C15.8704 15.8337 15.4444 16.0199 15.0003 16.0199C14.5561 16.0199 14.1301 15.8337 13.816 15.5023C13.5019 15.1709 13.3255 14.7214 13.3255 14.2527ZM13.2362 22.2809C13.814 22.4264 14.4063 22.5 15.0003 22.5C15.5937 22.499 16.185 22.4249 16.7621 22.2791C16.928 22.2379 17.0776 22.1435 17.1906 22.0089C17.3035 21.8743 17.3742 21.7061 17.393 21.5274L17.5236 20.2726C17.5362 20.1357 17.5795 20.004 17.6499 19.8883C17.7203 19.7725 17.8158 19.6762 17.9285 19.6071C18.0412 19.538 18.1678 19.4982 18.298 19.491C18.4281 19.4838 18.558 19.5094 18.677 19.5657L19.7684 20.07C19.9246 20.1425 20.0984 20.162 20.2655 20.1255C20.4327 20.0891 20.585 19.9987 20.7012 19.8667C21.5076 18.9499 22.1096 17.8543 22.4631 16.6603C22.5138 16.4876 22.5122 16.3025 22.4587 16.1308C22.4052 15.959 22.3023 15.8091 22.1644 15.7018L21.1992 14.9507C21.0937 14.8697 21.008 14.7634 20.9489 14.6407C20.8899 14.5179 20.8592 14.3822 20.8593 14.2445C20.8595 14.1069 20.8905 13.9712 20.9499 13.8486C21.0092 13.7261 21.0952 13.62 21.2008 13.5393L22.1611 12.7911C22.2998 12.6841 22.4033 12.534 22.457 12.3618C22.5108 12.1896 22.5121 12.0039 22.4608 11.8309C22.108 10.6364 21.5057 9.5407 20.6984 8.62442C20.5817 8.49273 20.4291 8.40246 20.2618 8.36606C20.0944 8.32966 19.9205 8.34892 19.7639 8.42119L18.6775 8.92545C18.5584 8.98022 18.4288 9.00466 18.2991 8.99679C18.1695 8.98892 18.0434 8.94896 17.931 8.88014C17.8187 8.81132 17.7233 8.71557 17.6525 8.60064C17.5817 8.48571 17.5376 8.35481 17.5236 8.21854L17.3918 6.96965C17.3734 6.78883 17.3017 6.61866 17.1869 6.48308C17.072 6.3475 16.9197 6.25334 16.7515 6.21384C16.1783 6.07867 15.5932 6.007 15.0058 6C14.415 6.00738 13.8265 6.07904 13.2496 6.21384C13.0813 6.25266 12.9289 6.34639 12.814 6.48173C12.6991 6.61708 12.6274 6.78717 12.6092 6.96789L12.4769 8.21795C12.4625 8.35443 12.4179 8.48544 12.3469 8.6005C12.2758 8.71555 12.1802 8.81144 12.0677 8.8805C11.9552 8.94956 11.829 8.98986 11.6991 8.99818C11.5692 9.0065 11.4392 8.9826 11.3197 8.9284L10.2333 8.42354C10.0765 8.35329 9.90315 8.33539 9.73647 8.37225C9.56979 8.40911 9.41781 8.49897 9.30099 8.62973C8.49354 9.54689 7.89078 10.6431 7.53688 11.8379C7.48651 12.0106 7.48826 12.1954 7.54187 12.3669C7.59548 12.5384 7.69831 12.6881 7.83611 12.7952L8.79911 13.5446C8.90401 13.626 8.98929 13.7324 9.04807 13.855C9.10685 13.9776 9.13747 14.1132 9.13747 14.2506C9.13747 14.388 9.10685 14.5235 9.04807 14.6462C8.98929 14.7688 8.90401 14.8752 8.79911 14.9566L7.83611 15.7077C7.69779 15.815 7.59466 15.9652 7.54112 16.1374C7.48758 16.3095 7.48629 16.495 7.53744 16.6679C7.89118 17.8636 8.49393 18.9606 9.30154 19.8785C9.37832 19.9656 9.47141 20.035 9.57491 20.0821C9.67841 20.1293 9.79006 20.1532 9.90279 20.1525C10.0161 20.1525 10.1283 20.1277 10.2327 20.08L11.3241 19.574C11.4432 19.5197 11.5726 19.4956 11.7021 19.5037C11.8315 19.5119 11.9573 19.5519 12.0695 19.6206C12.1816 19.6894 12.2769 19.7849 12.3476 19.8996C12.4184 20.0143 12.4627 20.1449 12.4769 20.2809L12.6081 21.5333C12.6272 21.711 12.6977 21.8782 12.8101 22.0121C12.9225 22.146 13.0713 22.2395 13.2362 22.2809ZM16.3071 21.1816C15.4458 21.368 14.5575 21.368 13.6962 21.1816L13.5873 20.1566C13.5341 19.6551 13.3075 19.192 12.9509 18.8559C12.6717 18.5964 12.3287 18.4256 11.9614 18.3631C11.5942 18.3005 11.2176 18.3488 10.8753 18.5024L9.97871 18.9148C9.40035 18.2159 8.95528 17.4058 8.66792 16.5289L9.46288 15.9092C9.70848 15.7182 9.90812 15.469 10.0457 15.1817C10.1833 14.8944 10.255 14.5769 10.255 14.255C10.255 13.9331 10.1833 13.6157 10.0457 13.3283C9.90812 13.041 9.70848 12.7918 9.46288 12.6008L8.66959 11.9829C8.95729 11.1068 9.40234 10.2976 9.98039 9.59938L10.8736 10.0117C11.1198 10.1265 11.386 10.1855 11.6552 10.1849C12.1344 10.1834 12.5964 9.99595 12.9533 9.65837C13.3101 9.32079 13.537 8.85658 13.5907 8.35403L13.699 7.32488C14.131 7.23651 14.5698 7.18939 15.0092 7.18349C15.4458 7.18939 15.8812 7.23651 16.3099 7.32488L16.4138 8.34991C16.4655 8.85278 16.6916 9.31773 17.0485 9.65534C17.3279 9.91635 17.6718 10.0882 18.0402 10.1507C18.4086 10.2133 18.7863 10.1641 19.1291 10.0088L20.0224 9.59643C20.6012 10.2944 21.0467 11.104 21.3343 11.9805L20.5399 12.5967C20.293 12.787 20.0922 13.0361 19.9538 13.3238C19.8153 13.6114 19.7432 13.9295 19.7432 14.2521C19.7432 14.5747 19.8153 14.8927 19.9538 15.1804C20.0922 15.468 20.293 15.7171 20.5399 15.9074L21.3337 16.526C21.0459 17.4008 20.6015 18.2092 20.0246 18.9071L19.1314 18.4947C18.8519 18.3635 18.5469 18.3039 18.2414 18.3208C17.9358 18.3378 17.6385 18.4308 17.3735 18.5922C17.1086 18.7537 16.8836 18.979 16.717 19.2497C16.5504 19.5205 16.4469 19.829 16.4149 20.1501L16.3071 21.1816Z" fill="#177A54"/>
    <path d="M15.0003 11.3072C14.26 11.3072 13.55 11.6175 13.0265 12.1699C12.503 12.7223 12.209 13.4715 12.209 14.2527C12.209 15.0338 12.503 15.783 13.0265 16.3354C13.55 16.8878 14.26 17.1981 15.0003 17.1981C15.7406 17.1981 16.4505 16.8878 16.974 16.3354C17.4975 15.783 17.7916 15.0338 17.7916 14.2527C17.7916 13.4715 17.4975 12.7223 16.974 12.1699C16.4505 11.6175 15.7406 11.3072 15.0003 11.3072ZM13.3255 14.2527C13.3255 13.7839 13.5019 13.3344 13.816 13.003C14.1301 12.6716 14.5561 12.4854 15.0003 12.4854C15.4444 12.4854 15.8704 12.6716 16.1845 13.003C16.4986 13.3344 16.675 13.7839 16.675 14.2527C16.675 14.7214 16.4986 15.1709 16.1845 15.5023C15.8704 15.8337 15.4444 16.0199 15.0003 16.0199C14.5561 16.0199 14.1301 15.8337 13.816 15.5023C13.5019 15.1709 13.3255 14.7214 13.3255 14.2527ZM13.2362 22.2809C13.814 22.4264 14.4063 22.5 15.0003 22.5C15.5937 22.499 16.185 22.4249 16.7621 22.2791C16.928 22.2379 17.0776 22.1435 17.1906 22.0089C17.3035 21.8743 17.3742 21.7061 17.393 21.5274L17.5236 20.2726C17.5362 20.1357 17.5795 20.004 17.6499 19.8883C17.7203 19.7725 17.8158 19.6762 17.9285 19.6071C18.0412 19.538 18.1678 19.4982 18.298 19.491C18.4281 19.4838 18.558 19.5094 18.677 19.5657L19.7684 20.07C19.9246 20.1425 20.0984 20.162 20.2655 20.1255C20.4327 20.0891 20.585 19.9987 20.7012 19.8667C21.5076 18.9499 22.1096 17.8543 22.4631 16.6603C22.5138 16.4876 22.5122 16.3025 22.4587 16.1308C22.4052 15.959 22.3023 15.8091 22.1644 15.7018L21.1992 14.9507C21.0937 14.8697 21.008 14.7634 20.9489 14.6407C20.8899 14.5179 20.8592 14.3822 20.8593 14.2445C20.8595 14.1069 20.8905 13.9712 20.9499 13.8486C21.0092 13.7261 21.0952 13.62 21.2008 13.5393L22.1611 12.7911C22.2998 12.6841 22.4033 12.534 22.457 12.3618C22.5108 12.1896 22.5121 12.0039 22.4608 11.8309C22.108 10.6364 21.5057 9.5407 20.6984 8.62442C20.5817 8.49273 20.4291 8.40246 20.2618 8.36606C20.0944 8.32966 19.9205 8.34892 19.7639 8.42119L18.6775 8.92545C18.5584 8.98022 18.4288 9.00466 18.2991 8.99679C18.1695 8.98892 18.0434 8.94896 17.931 8.88014C17.8187 8.81132 17.7233 8.71557 17.6525 8.60064C17.5817 8.48571 17.5376 8.35481 17.5236 8.21854L17.3918 6.96965C17.3734 6.78883 17.3017 6.61866 17.1869 6.48308C17.072 6.3475 16.9197 6.25334 16.7515 6.21384C16.1783 6.07867 15.5932 6.007 15.0058 6C14.415 6.00738 13.8265 6.07904 13.2496 6.21384C13.0813 6.25266 12.9289 6.34639 12.814 6.48173C12.6991 6.61708 12.6274 6.78717 12.6092 6.96789L12.4769 8.21795C12.4625 8.35443 12.4179 8.48544 12.3469 8.6005C12.2758 8.71555 12.1802 8.81144 12.0677 8.8805C11.9552 8.94956 11.829 8.98986 11.6991 8.99818C11.5692 9.0065 11.4392 8.9826 11.3197 8.9284L10.2333 8.42354C10.0765 8.35329 9.90315 8.33539 9.73647 8.37225C9.56979 8.40911 9.41781 8.49897 9.30099 8.62973C8.49354 9.54689 7.89078 10.6431 7.53688 11.8379C7.48651 12.0106 7.48826 12.1954 7.54187 12.3669C7.59548 12.5384 7.69831 12.6881 7.83611 12.7952L8.79911 13.5446C8.90401 13.626 8.98929 13.7324 9.04807 13.855C9.10685 13.9776 9.13747 14.1132 9.13747 14.2506C9.13747 14.388 9.10685 14.5235 9.04807 14.6462C8.98929 14.7688 8.90401 14.8752 8.79911 14.9566L7.83611 15.7077C7.69779 15.815 7.59466 15.9652 7.54112 16.1374C7.48758 16.3095 7.48629 16.495 7.53744 16.6679C7.89118 17.8636 8.49393 18.9606 9.30154 19.8785C9.37832 19.9656 9.47141 20.035 9.57491 20.0821C9.67841 20.1293 9.79006 20.1532 9.90279 20.1525C10.0161 20.1525 10.1283 20.1277 10.2327 20.08L11.3241 19.574C11.4432 19.5197 11.5726 19.4956 11.7021 19.5037C11.8315 19.5119 11.9573 19.5519 12.0695 19.6206C12.1816 19.6894 12.2769 19.7849 12.3476 19.8996C12.4184 20.0143 12.4627 20.1449 12.4769 20.2809L12.6081 21.5333C12.6272 21.711 12.6977 21.8782 12.8101 22.0121C12.9225 22.146 13.0713 22.2395 13.2362 22.2809ZM16.3071 21.1816C15.4458 21.368 14.5575 21.368 13.6962 21.1816L13.5873 20.1566C13.5341 19.6551 13.3075 19.192 12.9509 18.8559C12.6717 18.5964 12.3287 18.4256 11.9614 18.3631C11.5942 18.3005 11.2176 18.3488 10.8753 18.5024L9.97871 18.9148C9.40035 18.2159 8.95528 17.4058 8.66792 16.5289L9.46288 15.9092C9.70848 15.7182 9.90812 15.469 10.0457 15.1817C10.1833 14.8944 10.255 14.5769 10.255 14.255C10.255 13.9331 10.1833 13.6157 10.0457 13.3283C9.90812 13.041 9.70848 12.7918 9.46288 12.6008L8.66959 11.9829C8.95729 11.1068 9.40234 10.2976 9.98039 9.59938L10.8736 10.0117C11.1198 10.1265 11.386 10.1855 11.6552 10.1849C12.1344 10.1834 12.5964 9.99595 12.9533 9.65837C13.3101 9.32079 13.537 8.85658 13.5907 8.35403L13.699 7.32488C14.131 7.23651 14.5698 7.18939 15.0092 7.18349C15.4458 7.18939 15.8812 7.23651 16.3099 7.32488L16.4138 8.34991C16.4655 8.85278 16.6916 9.31773 17.0485 9.65534C17.3279 9.91635 17.6718 10.0882 18.0402 10.1507C18.4086 10.2133 18.7863 10.1641 19.1291 10.0088L20.0224 9.59643C20.6012 10.2944 21.0467 11.104 21.3343 11.9805L20.5399 12.5967C20.293 12.787 20.0922 13.0361 19.9538 13.3238C19.8153 13.6114 19.7432 13.9295 19.7432 14.2521C19.7432 14.5747 19.8153 14.8927 19.9538 15.1804C20.0922 15.468 20.293 15.7171 20.5399 15.9074L21.3337 16.526C21.0459 17.4008 20.6015 18.2092 20.0246 18.9071L19.1314 18.4947C18.8519 18.3635 18.5469 18.3039 18.2414 18.3208C17.9358 18.3378 17.6385 18.4308 17.3735 18.5922C17.1086 18.7537 16.8836 18.979 16.717 19.2497C16.5504 19.5205 16.4469 19.829 16.4149 20.1501L16.3071 21.1816Z" stroke="#177A54" mask="url(#path-1-outside-1_14_295)"/>
    <circle cx="15" cy="15" r="14" stroke="#177A54" stroke-width="2"/>
</svg>