<svg xmlns="http://www.w3.org/2000/svg" width="30" height="30" viewBox="0 0 30 30" fill="none">
<path d="M23.3077 12.597H22.5834C22.4094 10.7937 21.5352 9.11744 20.1323 7.89701C18.7294 6.67657 16.899 6 15 6C13.101 6 11.2706 6.67657 9.86767 7.89701C8.46475 9.11744 7.59059 10.7937 7.41663 12.597H6.69231C6.5087 12.597 6.33261 12.6665 6.20277 12.7903C6.07294 12.9141 6 13.0821 6 13.2572C6.00304 14.8272 6.45614 16.3666 7.31029 17.7089C8.16444 19.0511 9.38714 20.1451 10.8462 20.8726V21.1796C10.8462 21.5298 10.992 21.8656 11.2517 22.1133C11.5114 22.3609 11.8635 22.5 12.2308 22.5H17.7692C18.1365 22.5 18.4886 22.3609 18.7483 22.1133C19.008 21.8656 19.1538 21.5298 19.1538 21.1796V20.8726C20.6129 20.1451 21.8356 19.0511 22.6897 17.7089C23.5439 16.3666 23.997 14.8272 24 13.2572C24 13.0821 23.9271 12.9141 23.7972 12.7903C23.6674 12.6665 23.4913 12.597 23.3077 12.597ZM21.191 12.597H16.7412C17.5805 11.3961 18.8503 10.5285 20.3126 10.1567C20.7907 10.8983 21.0907 11.7317 21.191 12.597ZM18.9358 8.65474C19.0944 8.77853 19.2464 8.90919 19.3918 9.04673C17.5489 9.66497 16.0259 10.9356 15.1385 12.5953H12.5856C13.0183 11.4387 13.8149 10.4376 14.8666 9.72892C15.9183 9.02023 17.1738 8.63846 18.4615 8.63576C18.6199 8.63576 18.7783 8.64318 18.9358 8.65474ZM15 7.31535C15.5555 7.3157 16.1085 7.38703 16.6442 7.52744C15.3396 7.83606 14.1433 8.46719 13.176 9.35721C12.2087 10.2472 11.5045 11.3647 11.1343 12.597H8.80904C8.98077 11.1452 9.70672 9.80454 10.8485 8.83047C11.9903 7.8564 13.468 7.31709 15 7.31535ZM18.1725 19.8592C18.0517 19.9121 17.9495 19.997 17.878 20.1039C17.8065 20.2107 17.7687 20.3349 17.7692 20.4616V21.1796H12.2308V20.4616C12.2313 20.3349 12.1935 20.2107 12.122 20.1039C12.0505 19.997 11.9483 19.9121 11.8275 19.8592C10.61 19.3249 9.5613 18.4947 8.78663 17.4517C8.01196 16.4088 7.5386 15.1899 7.41404 13.9174H22.5834C22.4591 15.1896 21.9861 16.4084 21.2119 17.4513C20.4377 18.4942 19.3895 19.3246 18.1725 19.8592Z" fill="#177A54" stroke="#177A54" stroke-width="0.5"/>
<circle cx="15" cy="15" r="14" stroke="#177A54" stroke-width="2"/>
</svg>