<svg xmlns="http://www.w3.org/2000/svg" width="32" height="32" viewBox="0 0 32 32" fill="none">
<path d="M16 5.99971C17.6576 5.99971 19.2468 6.65866 20.4189 7.83076L20.6328 8.0544C21.6712 9.20096 22.25 10.6955 22.25 12.2497C22.25 13.8039 21.6712 15.2985 20.6328 16.445L20.4189 16.6687C19.2468 17.8408 17.6576 18.4997 16 18.4997C14.4458 18.4997 12.9512 17.9209 11.8047 16.8825L11.5811 16.6687C10.409 15.4966 9.75 13.9073 9.75 12.2497L9.75781 11.9401C9.83437 10.3952 10.4821 8.92969 11.5811 7.83076L11.8047 7.6169C12.9512 6.57853 14.4458 5.99971 16 5.99971ZM16 7.99971C14.9432 7.99971 13.9271 8.39334 13.1475 9.09932L12.9951 9.24483C12.1981 10.0419 11.75 11.1225 11.75 12.2497C11.75 13.3769 12.1981 14.4576 12.9951 15.2546L13.1475 15.4001C13.9271 16.1061 14.9432 16.4997 16 16.4997C16.558 16.4997 17.1105 16.3899 17.626 16.1765C18.1416 15.9629 18.6102 15.6492 19.0049 15.2546C19.3995 14.8599 19.7132 14.3913 19.9268 13.8757C20.1402 13.3602 20.25 12.8077 20.25 12.2497C20.25 11.6918 20.1402 11.1392 19.9268 10.6237C19.7132 10.1081 19.3995 9.63948 19.0049 9.24483C18.6102 8.85018 18.1416 8.53653 17.626 8.32295C17.1105 8.1095 16.558 7.99971 16 7.99971Z" fill="#177A54" stroke="#177A54" stroke-width="0.5"/>
<path d="M16 0.75C24.4226 0.75 31.25 7.57743 31.25 16C31.25 24.4226 24.4226 31.25 16 31.25C7.57743 31.25 0.75 24.4226 0.75 16C0.75 7.57743 7.57743 0.75 16 0.75ZM22.8799 24.3086C18.0807 23.6442 14.6952 23.5472 10.083 24.1523L9.14258 24.2832C8.49264 24.3782 8 24.9469 8 25.6338V25.6348C7.99938 25.9328 8.09685 26.2228 8.27734 26.46L8.7959 27.1201C10.94 28.513 13.4426 29.254 16 29.25L16.4707 29.2422C18.8043 29.1627 21.0774 28.4644 23.0566 27.2158C23.2704 26.9657 23.4884 26.7062 23.709 26.4375L23.7754 26.3496C23.9202 26.1369 24 25.8788 24 25.6133V25.6123L23.9951 25.4941C23.9722 25.2207 23.8638 24.9605 23.6836 24.751C23.4777 24.5116 23.1924 24.3549 22.8799 24.3096V24.3086ZM16 2.75C8.68232 2.75 2.75 8.68232 2.75 16L2.75391 16.3203C2.82564 19.4599 4.01424 22.4693 6.10254 24.8096C6.42317 23.527 7.47634 22.5047 8.85352 22.3037L9.83301 22.168C14.6403 21.5381 18.2034 21.6428 23.1553 22.3281L23.4414 22.3809C24.6703 22.6622 25.6032 23.6187 25.8994 24.8057C28.0568 22.3864 29.2545 19.2532 29.25 16C29.25 8.68232 23.3177 2.75 16 2.75Z" fill="#177A54" stroke="#177A54" stroke-width="0.5"/>
</svg>