<svg xmlns="http://www.w3.org/2000/svg" width="32" height="32" viewBox="0 0 32 32" fill="none">
<path d="M15.9951 0.75C18.1009 0.750015 20.0851 1.14952 21.9443 1.9502L22.2891 2.10352C23.9986 2.88687 25.4987 3.92261 26.7871 5.20996L27.041 5.46973C28.2959 6.78439 29.298 8.31131 30.0479 10.0479L30.1934 10.3975C30.898 12.1532 31.25 14.0199 31.25 15.9951C31.25 17.9693 30.8989 19.8362 30.1953 21.5938L30.0498 21.9443C29.3 23.6819 28.2978 25.2097 27.0439 26.5264L26.79 26.7871C25.5037 28.0755 24.0053 29.1111 22.2969 29.8945L21.9521 30.0479C20.0951 30.8497 18.1118 31.25 16.0049 31.25C14.0307 31.25 12.1638 30.8989 10.4062 30.1953L10.0557 30.0498C8.31811 29.3 6.7903 28.2978 5.47363 27.0439L5.21289 26.79C3.92452 25.5037 2.88887 24.0053 2.10547 22.2969L1.95215 21.9521C1.15034 20.0951 0.75 18.1118 0.75 16.0049C0.750015 13.8991 1.14952 11.9149 1.9502 10.0557L2.10352 9.71094C2.88687 8.00145 3.92261 6.5013 5.20996 5.21289L5.46973 4.95898C6.78439 3.70413 8.31131 2.70197 10.0479 1.95215L10.3975 1.80664C12.1532 1.10197 14.0199 0.75 15.9951 0.75ZM16 2.91699C12.3427 2.91699 9.25422 4.18328 6.71875 6.71875C4.18328 9.25422 2.91699 12.3427 2.91699 16C2.91699 19.6573 4.18328 22.7458 6.71875 25.2812L6.95801 25.5156C9.44772 27.8949 12.4571 29.083 16 29.083C19.6573 29.083 22.7458 27.8167 25.2812 25.2812L25.5156 25.042C27.8949 22.5523 29.083 19.5429 29.083 16C29.083 12.4571 27.8949 9.44772 25.5156 6.95801L25.2812 6.71875C22.7458 4.18328 19.6573 2.91699 16 2.91699ZM16.043 21.8398C16.4751 21.8398 16.8508 21.9917 17.1533 22.293L17.2598 22.4092C17.4919 22.6891 17.6084 23.0241 17.6084 23.4033C17.6084 23.8342 17.4577 24.2093 17.1582 24.5127L17.1572 24.5137C16.9153 24.7556 16.6253 24.8992 16.2969 24.9473V24.9688H16.0469C15.6139 24.9688 15.2383 24.8164 14.9365 24.5146V24.5137C14.6334 24.2124 14.4805 23.8381 14.4805 23.4053C14.4805 22.9732 14.6314 22.5975 14.9326 22.2949L15.0498 22.1885C15.3295 21.9566 15.6641 21.8399 16.043 21.8398ZM16.167 7.09668C17.4842 7.09675 18.634 7.50637 19.6045 8.32617L19.7832 8.48535C20.6473 9.29884 21.0771 10.363 21.0771 11.6562C21.0771 12.3686 20.9302 13.0154 20.6318 13.5898L20.4941 13.8311C20.1179 14.4427 19.5505 15.1252 18.7988 15.877L18.542 16.1338C17.977 16.713 17.6112 17.1833 17.4268 17.5469H17.4258C17.2167 17.958 17.0859 18.5101 17.0449 19.2148L17.0312 19.4502H14.9365V19.1982C14.9365 18.2762 15.09 17.4797 15.4082 16.8184V16.8174L15.5449 16.5635C15.9 15.9572 16.5132 15.2611 17.3643 14.4766V14.4756L17.7129 14.1406C18.0436 13.8063 18.3202 13.4752 18.5439 13.1484L18.6436 12.9922C18.8597 12.6215 18.9688 12.2068 18.9688 11.7432C18.9687 11.1773 18.7957 10.6504 18.4414 10.1572L18.2783 9.94727C17.8459 9.43067 17.1413 9.14652 16.1035 9.14648C15.2064 9.14648 14.5603 9.37031 14.125 9.7793H14.124C13.6514 10.2224 13.2898 10.7309 13.0371 11.3057L12.9385 11.5293L12.7129 11.4355L11.1797 10.8008L10.9395 10.7012L11.0479 10.4658C11.4557 9.57914 12.0962 8.79932 12.96 8.12598L13.1279 8.00098C13.9808 7.39526 14.998 7.09668 16.167 7.09668Z" fill="#177A54" stroke="#177A54" stroke-width="0.5"/>
</svg>