
<svg xmlns="http://www.w3.org/2000/svg" width="48" height="48" viewBox="0 0 48 48" fill="none">
<path d="M1.689 33.0697C1.53485 33.0698 1.38442 33.0224 1.25819 32.934C1.13195 32.8455 1.03603 32.7203 0.983494 32.5754C0.930954 32.4305 0.924342 32.2729 0.964558 32.1241C1.00477 31.9753 1.08986 31.8425 1.20825 31.7438L11.2642 23.3595C11.3774 23.2646 11.5161 23.2052 11.6628 23.1888C11.8096 23.1724 11.9579 23.1997 12.0892 23.2673L15.654 25.0883L18.8377 22.02C18.9775 21.8853 19.1641 21.81 19.3582 21.81H21.375L25.113 15.3068C25.1725 15.2025 25.2561 15.114 25.3568 15.0487C25.4576 14.9835 25.5725 14.9434 25.692 14.9318C25.811 14.9212 25.9309 14.9388 26.0419 14.9831C26.1529 15.0274 26.2519 15.0972 26.331 15.1868L33.375 23.325L36.3375 20.9408C36.488 20.8195 36.6795 20.761 36.872 20.7775C37.0646 20.794 37.2433 20.8842 37.371 21.0293L46.875 31.824C46.9429 31.8974 46.9954 31.9837 47.0295 32.0777C47.0636 32.1717 47.0785 32.2716 47.0735 32.3715C47.0684 32.4714 47.0433 32.5692 46.9999 32.6593C46.9564 32.7494 46.8953 32.8298 46.8203 32.896C46.7453 32.9621 46.6578 33.0125 46.563 33.0443C46.4682 33.0762 46.3679 33.0887 46.2682 33.0812C46.1685 33.0737 46.0713 33.0463 45.9823 33.0007C45.8933 32.9551 45.8143 32.8921 45.75 32.8155L36.7215 22.5623L33.7545 24.9502C33.6032 25.0721 33.4106 25.1305 33.2171 25.1131C33.0236 25.0958 32.8444 25.0041 32.7172 24.8573L25.8847 16.9695L22.455 22.9335C22.3891 23.0476 22.2943 23.1424 22.1802 23.2082C22.066 23.274 21.9365 23.3086 21.8047 23.3085H19.6567L16.3065 26.538C16.1941 26.6464 16.0506 26.7171 15.8962 26.7401C15.7417 26.7631 15.5839 26.7373 15.4447 26.6663L11.8447 24.8265L2.169 32.8958C2.03427 33.0081 1.86442 33.0697 1.689 33.0697Z" fill="#177A54"/>
<path d="M26.4495 32.1232C26.2815 32.1235 26.1183 32.0673 25.9861 31.9637C25.8538 31.8601 25.7602 31.7151 25.7202 31.552C25.6802 31.3888 25.696 31.217 25.7653 31.0639C25.8346 30.9109 25.9532 30.7856 26.1022 30.708L32.9062 27.1605L36.15 21.171C36.1959 21.0826 36.259 21.0043 36.3355 20.9405C36.412 20.8768 36.5005 20.8289 36.5957 20.7997C36.691 20.7706 36.791 20.7606 36.8901 20.7705C36.9892 20.7805 37.0854 20.81 37.1729 20.8575C37.2605 20.9049 37.3377 20.9694 37.4001 21.047C37.4625 21.1246 37.5088 21.2139 37.5363 21.3096C37.5638 21.4054 37.572 21.5056 37.5604 21.6045C37.5487 21.7034 37.5175 21.799 37.4685 21.8857L34.1145 28.077C34.0432 28.2084 33.9343 28.3155 33.8017 28.3845L26.7945 32.0385C26.6879 32.094 26.5696 32.123 26.4495 32.1232ZM13.3777 32.5103C13.2726 32.5108 13.1685 32.4892 13.0723 32.4469C12.976 32.4046 12.8898 32.3426 12.819 32.2648C12.7483 32.187 12.6947 32.0952 12.6618 31.9953C12.6288 31.8955 12.6172 31.7899 12.6277 31.6852L12.993 27.9945L11.0745 24.279C10.9832 24.1023 10.9658 23.8965 11.0263 23.707C11.0867 23.5174 11.2199 23.3597 11.3966 23.2684C11.5734 23.1771 11.7791 23.1597 11.9686 23.2201C12.1582 23.2805 12.3159 23.4138 12.4072 23.5905L14.4277 27.5033C14.4943 27.6318 14.5221 27.7769 14.508 27.921L14.3452 29.5612L19.0942 24.2925C19.1749 24.2028 19.2761 24.1338 19.3891 24.0915C19.5021 24.0492 19.6237 24.0348 19.7435 24.0496C19.8632 24.0643 19.9777 24.1077 20.0771 24.1761C20.1765 24.2445 20.2579 24.3359 20.3145 24.4425L22.005 27.6412L23.7412 23.7817L25.0162 15.5625C25.0468 15.3659 25.1542 15.1894 25.3148 15.072C25.4754 14.9545 25.6761 14.9057 25.8727 14.9362C26.0694 14.9668 26.2458 15.0742 26.3633 15.2348C26.4807 15.3954 26.5295 15.5961 26.499 15.7927L25.209 24.1117C25.1991 24.1783 25.1799 24.2432 25.152 24.3045L22.7445 29.6572C22.6869 29.7853 22.5944 29.8946 22.4778 29.9727C22.3611 30.0507 22.2248 30.0945 22.0845 30.099C21.9435 30.1071 21.8032 30.0736 21.6811 30.0027C21.5589 29.9318 21.4603 29.8265 21.3975 29.7L19.4917 26.0917L13.935 32.2627C13.8646 32.3407 13.7787 32.403 13.6827 32.4457C13.5867 32.4883 13.4828 32.5103 13.3777 32.5103Z" fill="#177A54"/>
<path d="M28.725 28.725C28.5692 28.7252 28.4172 28.6769 28.2901 28.5867C28.163 28.4965 28.0672 28.369 28.0159 28.2219C27.9646 28.0748 27.9604 27.9153 28.0039 27.7657C28.0473 27.6161 28.1363 27.4837 28.2585 27.387L32.8185 23.775C32.8959 23.7138 32.9845 23.6685 33.0794 23.6416C33.1743 23.6147 33.2735 23.6068 33.3715 23.6182C33.4694 23.6297 33.5642 23.6603 33.6503 23.7084C33.7364 23.7564 33.8122 23.821 33.8734 23.8984C33.9345 23.9757 33.9799 24.0644 34.0068 24.1593C34.0337 24.2542 34.0416 24.3534 34.0302 24.4514C34.0187 24.5493 33.9881 24.6441 33.94 24.7302C33.8919 24.8163 33.8274 24.8921 33.75 24.9532L29.193 28.5652C29.0596 28.6699 28.8946 28.7262 28.725 28.725Z" fill="#177A54"/>
</svg>