<svg xmlns="http://www.w3.org/2000/svg" width="16" height="16" viewBox="0 0 16 16" fill="none">
<path d="M15.085 14.0878C15.4004 14.0878 15.6561 14.3319 15.6561 14.633C15.6561 14.9089 15.4412 15.137 15.1625 15.1731L15.085 15.1781H9.1264C8.81098 15.1781 8.55527 14.934 8.55527 14.633C8.55527 14.357 8.77014 14.1289 9.0489 14.0928L9.1264 14.0878H15.085ZM9.28965 1.59597C10.371 0.563877 12.1248 0.563877 13.2061 1.59597L14.3286 2.66743C15.4099 3.69951 15.4099 5.37352 14.3286 6.40561L5.89115 14.4591C5.40869 14.9196 4.75456 15.178 4.0718 15.178H0.61636C0.29536 15.178 0.0374084 14.9256 0.0454082 14.6193L0.132328 11.2913C0.149609 10.6623 0.419254 10.0627 0.885323 9.6178L9.28965 1.59597ZM8.6364 3.75985L1.69302 10.3887C1.43395 10.636 1.28381 10.9699 1.27421 11.3192L1.20169 14.0873L4.0718 14.0877C4.40952 14.0877 4.7343 13.9743 4.99064 13.7693L5.08346 13.6882L12.0613 7.02799L8.6364 3.75985ZM12.3984 2.3669C11.7632 1.76059 10.7326 1.76059 10.0974 2.3669L9.4447 2.98884L12.8687 6.25698L13.5209 5.63468C14.1209 5.06205 14.1542 4.15281 13.6209 3.54278L13.5209 3.43836L12.3984 2.3669Z" fill="#177A54"/>
</svg>